<?xml version="1.0" encoding="UTF-8" standalone="no"?>
<svg xmlns="http://www.w3.org/2000/svg" width="512" height="512" viewBox="300 240 420 540">
  <g fill="#E14D44" fill-rule="evenodd">
    <path d="M689 494 L681 500 L593 647 L579 650 L567 641 L529 572 L459 683 L444 687 L433 679 L395 617 L355 677 L355 687 L381 718 L407 738 L467 763 L535 767 L572 759 L605 745 L632 727 L662 697 L681 668 L694 638 L703 594 L703 551 Z M525 256 L482 283 L452 327 L446 380 L458 457 L450 478 L427 487 L408 477 L401 461 L403 408 L398 407 L362 444 L339 481 L325 520 L319 559 L321 606 L333 644 L379 575 L391 565 L411 572 L444 629 L451 632 L511 530 L526 517 L544 523 L579 590 L586 594 L669 453 L639 404 L617 379 L607 436 L599 441 L592 437 L575 398 L524 326 L521 290 L528 261 Z" />
  </g>
</svg>
